{"title":"Hell Boy-2 The Golden Army HD [HINDI] ","uid":6438571,"size":476362162,"categoryP":"video","categoryS":"movies","magnet":"?xt=urn:btih:a2392a51e4ba1273f014ec502d43db8bea4436f2&amp;dn=Hell+Boy-2+The+Golden+Army+HD+%5BHINDI%5D+&amp;tr=udp%3A%2F%2Ftracker.openbittorrent.com%3A80&amp;tr=udp%3A%2F%2Fopen.demonii.com%3A1337&amp;tr=udp%3A%2F%2Ftracker.coppersurfer.tk%3A6969&amp;tr=udp%3A%2F%2Fexodus.desync.com%3A6969","seeders":1,"leechers":2,"uploader":"HaUnTiNg.SuMMeR","files":-1,"time":1306881568,"description":"========================= HELLBOY-2 THE GOLDEN ARMY HD(HINDI)======================\n\nFormat                           : Matroska\nFile size                        : 454 MiB\nDuration                         : 1h 54mn\nOverall bit rate                 : 553 Kbps\nEncoded date                     : UTC 2009-05-31 18:37:20\nWriting application              : mkvmerge v2.8.0 (\\'The Tree\\') built on May  9 2009 18:02:06\nWriting library                  : libebml v0.7.7 + libmatroska v0.8.1\n\nVideo\nID                               : 1\nFormat                           : AVC\nFormat/Info                      : Advanced Video Codec\nFormat profile                   : &lt;a class=&quot;__cf_email__&quot; href=&quot;/cdn-cgi/l/email-protection&quot; data-cfemail=&quot;82caebe5eac2ceb0acb0&quot;&gt;[email&amp;#160;protected]&lt;/a&gt;&lt;script cf-hash='f9e31' type=&quot;text/javascript&quot;&gt;\n/* &lt;![CDATA[ */!function(){try{var t=&quot;currentScript&quot;in document?document.currentScript:function(){for(var t=document.getElementsByTagName(&quot;script&quot;),e=t.length;e--;)if(t[e].getAttribute(&quot;cf-hash&quot;))return t[e]}();if(t&amp;&amp;t.previousSibling){var e,r,n,i,c=t.previousSibling,a=c.getAttribute(&quot;data-cfemail&quot;);if(a){for(e=&quot;&quot;,r=parseInt(a.substr(0,2),16),n=2;a.length-n;n+=2)i=parseInt(a.substr(n,2),16)^r,e+=String.fromCharCode(i);e=document.createTextNode(e),c.parentNode.replaceChild(e,c)}}}catch(u){}}();/* ]]&gt; */&lt;/script&gt;\nFormat settings, CABAC           : Yes\nFormat settings, ReFrames        : 8 frames\nMuxing mode                      : Container profile=&lt;a class=&quot;__cf_email__&quot; href=&quot;/cdn-cgi/l/email-protection&quot; data-cfemail=&quot;fda8939693928a93bdcfd3cf&quot;&gt;[email&amp;#160;protected]&lt;/a&gt;&lt;script cf-hash='f9e31' type=&quot;text/javascript&quot;&gt;\n/* &lt;![CDATA[ */!function(){try{var t=&quot;currentScript&quot;in document?document.currentScript:function(){for(var t=document.getElementsByTagName(&quot;script&quot;),e=t.length;e--;)if(t[e].getAttribute(&quot;cf-hash&quot;))return t[e]}();if(t&amp;&amp;t.previousSibling){var e,r,n,i,c=t.previousSibling,a=c.getAttribute(&quot;data-cfemail&quot;);if(a){for(e=&quot;&quot;,r=parseInt(a.substr(0,2),16),n=2;a.length-n;n+=2)i=parseInt(a.substr(n,2),16)^r,e+=String.fromCharCode(i);e=document.createTextNode(e),c.parentNode.replaceChild(e,c)}}}catch(u){}}();/* ]]&gt; */&lt;/script&gt;\nCodec ID                         : V_MPEG4/ISO/AVC\nDuration                         : 1h 54mn\nBit rate                         : 467 Kbps\nWidth                            : 640 pixels\nHeight                           : 320 pixels\nDisplay aspect ratio             : 2.000\nFrame rate                       : 25.000 fps\nOriginal frame rate              : 23.976 fps\nColor space                      : YUV\nChroma subsampling               : 4:2:0\nBit depth                        : 8 bits\nScan type                        : Progressive\nBits/(Pixel*Frame)               : 0.091\nStream size                      : 366 MiB (81%)\nWriting library                  : x264 core 65 r1016M dbc5ef0\nEncoding settings                : cabac=1 / ref=8 / deblock=1:-1:-1 / \nAudio\nID                               : 2\nFormat                           : AC-3\nFormat/Info                      : Audio Coding 3\nMode extension                   : CM (complete main)\nCodec ID                         : A_AC3\nDuration                         : 1h 54mn\nBit rate mode                    : Constant\nBit rate                         : 96.0 Kbps\nChannel(s)                       : 2 channels\nChannel positions                : Front: L R\nSampling rate                    : 48.0 KHz\nVideo delay                      : 8s 0ms\nStream size                      : 78.8 MiB (17%)\n\n====================== SCREEN SHOT=====================================\n\n                       &lt;a href=&quot; http://bayimg.com/PaimIAADF&quot; rel=&quot;nofollow&quot; target=&quot;_NEW&quot;&gt; http://bayimg.com/PaimIAADF&lt;/a&gt;\n\n=======================================================================\n\n                    &lt;a href=&quot; http://www.imdb.com/title/tt0411477/&quot; rel=&quot;nofollow&quot; target=&quot;_NEW&quot;&gt; http://www.imdb.com/title/tt0411477/&lt;/a&gt;\n\n=========================================================================\n\nan evil elf breaks an ancient pact between humans and creatures, as he declares war against humanity. He is on a mission to release The Golden Army, a deadly group of fighting machines that can destroy the human race. As Hell on Earth is ready to erupt, Hellboy and his crew set out to defeat the evil prince before The Golden Army can destroy humanity\\'s existence. Written\n\n==================================================================================\t\t\n","torrent":{"xt":"urn:btih:a2392a51e4ba1273f014ec502d43db8bea4436f2","amp;dn":"Hell+Boy-2+The+Golden+Army+HD+%5BHINDI%5D+","amp;tr":["udp%3A%2F%2Ftracker.openbittorrent.com%3A80","udp%3A%2F%2Fopen.demonii.com%3A1337","udp%3A%2F%2Ftracker.coppersurfer.tk%3A6969","udp%3A%2F%2Fexodus.desync.com%3A6969"],"infoHash":"a2392a51e4ba1273f014ec502d43db8bea4436f2","infoHashBuffer":{"type":"Buffer","data":[162,57,42,81,228,186,18,115,240,20,236,80,45,67,219,139,234,68,54,242]},"announce":[],"urlList":[]}}